<?xml version="1.0" standalone="no"?>
<!DOCTYPE svg PUBLIC "-//W3C//DTD SVG 20010904//EN"
 "http://www.w3.org/TR/2001/REC-SVG-20010904/DTD/svg10.dtd">
<svg version="1.0" xmlns="http://www.w3.org/2000/svg"
 width="259.000000pt" height="198.000000pt" viewBox="0 0 259.000000 198.000000"
 preserveAspectRatio="xMidYMid meet">

<g transform="translate(0.000000,198.000000) scale(0.100000,-0.100000)"
fill="#000000" stroke="none">
<path d="M0 990 l0 -990 1295 0 1295 0 0 990 0 990 -1295 0 -1295 0 0 -990z
m1923 860 c51 -60 71 -133 74 -270 l2 -125 95 -5 c106 -6 138 -21 168 -81 16
-31 18 -78 18 -544 0 -569 1 -555 -69 -602 l-34 -23 -876 0 c-851 0 -877 1
-908 20 -71 43 -68 16 -71 595 -3 581 -4 565 67 612 l34 23 576 0 575 0 82 83
c86 87 149 193 161 272 11 77 61 99 106 45z"/>
<path d="M1852 1607 c-38 -68 -97 -137 -175 -204 l-61 -53 -573 0 c-377 0
-581 -4 -594 -10 -18 -10 -19 -27 -19 -515 0 -488 1 -505 19 -515 27 -14 1675
-14 1702 0 17 10 19 22 19 110 l0 99 -348 3 c-278 2 -352 6 -365 17 -24 19
-22 68 2 81 13 6 146 10 365 10 l346 0 0 350 c0 335 -1 350 -19 360 -11 5 -73
10 -139 10 -152 0 -152 0 -129 113 18 88 22 164 8 185 -6 10 -17 -2 -39 -41z
m-435 -401 c36 -39 41 -56 18 -56 -8 0 -15 -8 -15 -19 0 -10 -12 -30 -26 -45
-80 -79 -212 31 -148 122 38 55 121 53 171 -2z"/>
</g>
</svg>
